<?xml version="1.0" ?><svg style="enable-background:new 0 0 24 24;" version="1.1" viewBox="0 0 24 24" xml:space="preserve" xmlns="http://www.w3.org/2000/svg" xmlns:xlink="http://www.w3.org/1999/xlink"><style type="text/css">
	.st0{display:none;}
</style><g class="st0" id="grid"/><g id="icon"><path d="M12,0C7.864,0,4.5,3.364,4.5,7.5v11c0,3.033,2.468,5.5,5.5,5.5s5.5-2.467,5.5-5.5v-8C15.5,8.57,13.93,7,12,7   s-3.5,1.57-3.5,3.5v7.914c0,0.276,0.224,0.5,0.5,0.5s0.5-0.224,0.5-0.5V10.5C9.5,9.122,10.621,8,12,8s2.5,1.122,2.5,2.5v8   c0,2.481-2.019,4.5-4.5,4.5s-4.5-2.019-4.5-4.5v-11C5.5,3.916,8.416,1,12,1s6.5,2.916,6.5,6.5v8.022c0,0.276,0.224,0.5,0.5,0.5   s0.5-0.224,0.5-0.5V7.5C19.5,3.364,16.136,0,12,0z"/></g></svg>